<svg xmlns="http://www.w3.org/2000/svg" xmlns:xlink="http://www.w3.org/1999/xlink" version="1.1" class="marks" width="456" height="314" viewBox="0 0 456 314"><rect width="456" height="314" fill="white"/><g fill="none" stroke-miterlimit="10" transform="translate(49,42)"><g class="mark-group role-frame root" role="graphics-object" aria-roledescription="group mark container"><g transform="translate(0,0)"><path class="background" aria-hidden="true" d="M0.5,0.5h400v250h-400Z" stroke="#ddd"/><g><g class="mark-group role-axis" role="graphics-symbol" aria-roledescription="axis" aria-label="X-axis for a time scale with values from Friday, 01 January 1971, 1:00:00 AM to Saturday, 01 January 2022, 12:00:00 AM"><g transform="translate(0.5,250.5)"><path class="background" aria-hidden="true" d="M0,0h0v0h0Z" pointer-events="none"/><g><g class="mark-rule role-axis-tick" pointer-events="none"><line transform="translate(31,0)" x2="0" y2="5" stroke="#888" stroke-width="1" opacity="1"/><line transform="translate(71,0)" x2="0" y2="5" stroke="#888" stroke-width="1" opacity="1"/><line transform="translate(110,0)" x2="0" y2="5" stroke="#888" stroke-width="1" opacity="1"/><line transform="translate(149,0)" x2="0" y2="5" stroke="#888" stroke-width="1" opacity="1"/><line transform="translate(188,0)" x2="0" y2="5" stroke="#888" stroke-width="1" opacity="1"/><line transform="translate(227,0)" x2="0" y2="5" stroke="#888" stroke-width="1" opacity="1"/><line transform="translate(267,0)" x2="0" y2="5" stroke="#888" stroke-width="1" opacity="1"/><line transform="translate(306,0)" x2="0" y2="5" stroke="#888" stroke-width="1" opacity="1"/><line transform="translate(345,0)" x2="0" y2="5" stroke="#888" stroke-width="1" opacity="1"/><line transform="translate(384,0)" x2="0" y2="5" stroke="#888" stroke-width="1" opacity="1"/></g><g class="mark-text role-axis-label" pointer-events="none"><text text-anchor="middle" transform="translate(31.372127979385873,15)" font-family="sans-serif" font-size="10px" fill="#000" opacity="1">1975</text><text text-anchor="middle" transform="translate(70.58191969078807,15)" font-family="sans-serif" font-size="10px" fill="#000" opacity="1">1980</text><text text-anchor="middle" transform="translate(109.81318445351084,15)" font-family="sans-serif" font-size="10px" fill="#000" opacity="1">1985</text><text text-anchor="middle" transform="translate(149.02297616491302,15)" font-family="sans-serif" font-size="10px" fill="#000" opacity="1">1990</text><text text-anchor="middle" transform="translate(188.23276787631522,15)" font-family="sans-serif" font-size="10px" fill="#000" opacity="1">1995</text><text text-anchor="middle" transform="translate(227.44255958771743,15)" font-family="sans-serif" font-size="10px" fill="#000" opacity="1">2000</text><text text-anchor="middle" transform="translate(266.6738243504402,15)" font-family="sans-serif" font-size="10px" fill="#000" opacity="1">2005</text><text text-anchor="middle" transform="translate(305.88361606184236,15)" font-family="sans-serif" font-size="10px" fill="#000" opacity="1">2010</text><text text-anchor="middle" transform="translate(345.0934077732446,15)" font-family="sans-serif" font-size="10px" fill="#000" opacity="1">2015</text><text text-anchor="middle" transform="translate(384.30319948464677,15)" font-family="sans-serif" font-size="10px" fill="#000" opacity="1">2020</text></g><g class="mark-rule role-axis-domain" pointer-events="none"><line transform="translate(0,0)" x2="400" y2="0" stroke="#888" stroke-width="1" opacity="1"/></g></g><path class="foreground" aria-hidden="true" d="" pointer-events="none" display="none"/></g></g><g class="mark-group role-axis" role="graphics-symbol" aria-roledescription="axis" aria-label="Y-axis for a linear scale with values from 0 to 140,000"><g transform="translate(0.5,0.5)"><path class="background" aria-hidden="true" d="M0,0h0v0h0Z" pointer-events="none"/><g><g class="mark-rule role-axis-tick" pointer-events="none"><line transform="translate(0,250)" x2="-5" y2="0" stroke="#888" stroke-width="1" opacity="1"/><line transform="translate(0,214)" x2="-5" y2="0" stroke="#888" stroke-width="1" opacity="1"/><line transform="translate(0,179)" x2="-5" y2="0" stroke="#888" stroke-width="1" opacity="1"/><line transform="translate(0,143)" x2="-5" y2="0" stroke="#888" stroke-width="1" opacity="1"/><line transform="translate(0,107)" x2="-5" y2="0" stroke="#888" stroke-width="1" opacity="1"/><line transform="translate(0,71)" x2="-5" y2="0" stroke="#888" stroke-width="1" opacity="1"/><line transform="translate(0,36)" x2="-5" y2="0" stroke="#888" stroke-width="1" opacity="1"/><line transform="translate(0,0)" x2="-5" y2="0" stroke="#888" stroke-width="1" opacity="1"/></g><g class="mark-text role-axis-label" pointer-events="none"><text text-anchor="end" transform="translate(-7,253)" font-family="sans-serif" font-size="10px" fill="#000" opacity="1">0</text><text text-anchor="end" transform="translate(-7,217.2857142857143)" font-family="sans-serif" font-size="10px" fill="#000" opacity="1">20,000</text><text text-anchor="end" transform="translate(-7,181.57142857142858)" font-family="sans-serif" font-size="10px" fill="#000" opacity="1">40,000</text><text text-anchor="end" transform="translate(-7,145.85714285714286)" font-family="sans-serif" font-size="10px" fill="#000" opacity="1">60,000</text><text text-anchor="end" transform="translate(-7,110.14285714285715)" font-family="sans-serif" font-size="10px" fill="#000" opacity="1">80,000</text><text text-anchor="end" transform="translate(-7,74.42857142857143)" font-family="sans-serif" font-size="10px" fill="#000" opacity="1">100,000</text><text text-anchor="end" transform="translate(-7,38.71428571428573)" font-family="sans-serif" font-size="10px" fill="#000" opacity="1">120,000</text><text text-anchor="end" transform="translate(-7,3)" font-family="sans-serif" font-size="10px" fill="#000" opacity="1">140,000</text></g><g class="mark-rule role-axis-domain" pointer-events="none"><line transform="translate(0,250)" x2="0" y2="-250" stroke="#888" stroke-width="1" opacity="1"/></g></g><path class="foreground" aria-hidden="true" d="" pointer-events="none" display="none"/></g></g><g class="mark-line role-mark layer_0_marks" role="graphics-object" aria-roledescription="line mark container"><path aria-label="date: Jan 01, 1971; value: 3358" role="graphics-symbol" aria-roledescription="line mark" d="M0,244.004L7.838,243.945L15.697,243.111L23.534,242.739L31.372,243.302L39.21,243.414L47.069,243.089L54.907,242.866L62.744,242.42L70.582,243.052L78.441,242.237L86.279,241.911L94.116,241.871L101.954,242.879L109.813,242.695L117.651,241.487L125.489,242.613L133.326,241.189L141.185,241.504L149.023,239.623L156.861,240.495L164.698,238.563L172.557,239.789L180.395,237.58L188.233,237.73L196.07,239.848L203.93,237.596L211.767,234.555L219.605,232.829L227.443,232.196L235.302,232.948L243.139,230.13L250.977,231.039L258.815,224.755L266.674,219.754L274.511,217.668L282.349,214.841L290.187,210.539L298.046,204.43L305.884,203.24L313.721,187.126L321.559,176.366L329.418,154.961L337.256,134.783L345.093,101.139L352.931,101.802L360.79,73.431L368.628,53.979L376.466,36.462L384.303,9.391L392.162,31.825L400,9.198" stroke="#f4134d" stroke-width="2"/></g><g class="mark-line role-mark layer_1_marks" role="graphics-object" aria-roledescription="line mark container"><path aria-label="date: Jan 01, 1971; value: 49562" role="graphics-symbol" aria-roledescription="line mark" d="M0,161.496L7.838,161.346L15.697,163.413L23.534,148.213L31.372,141.421L39.21,162.239L47.069,112.627L54.907,126.745L62.744,130.159L70.582,124.582L78.441,119.743L86.279,122.587L94.116,124.587L101.954,131.17L109.813,137.904L117.651,136.805L125.489,122.457L133.326,111.705L141.185,164.305L149.023,152.451L156.861,145.666L164.698,125.684L172.557,133.426L180.395,108.584L188.233,118.452L196.07,130.178L203.93,134.285L211.767,136.704L219.605,118.369L227.443,128.894L235.302,114.119L243.139,138.058L250.977,140.241L258.815,138.524L266.674,151.815L274.511,141.227L282.349,135.19L290.187,120.839L298.046,128.288L305.884,113.064L313.721,132.09L321.559,97.767L329.418,72.45L337.256,82.075L345.093,86.007L352.931,73.214L360.79,84.583L368.628,47.107L376.466,47.828L384.303,26.263L392.162,31.47L400,44.64" stroke="#134bf4" stroke-width="2"/></g><g class="mark-text role-mark layer_2_marks" role="graphics-object" aria-roledescription="text mark container"><text aria-label="country: United Kingdom" role="graphics-symbol" aria-roledescription="text mark" text-anchor="middle" transform="translate(357,203)" font-family="sans-serif" font-size="11px" fill="#f4134d">United Kingdom</text></g><g class="mark-text role-mark layer_3_marks" role="graphics-object" aria-roledescription="text mark container"><text aria-label="country: France" role="graphics-symbol" aria-roledescription="text mark" text-anchor="middle" transform="translate(165,176)" font-family="sans-serif" font-size="11px" fill="#134bf4">France</text></g><g class="mark-group role-title"><g transform="translate(-43.1474609375,-37)"><path class="background" aria-hidden="true" d="M0,0h0v0h0Z" pointer-events="none"/><g><g class="mark-text role-title-text" role="graphics-symbol" aria-roledescription="title" aria-label="Title text 'Renewables'" pointer-events="none"><text text-anchor="start" transform="translate(0,11)" font-family="sans-serif" font-size="14px" font-weight="bold" fill="#000000" opacity="1">Renewables</text></g><g class="mark-text role-title-subtitle" role="graphics-symbol" aria-roledescription="subtitle" aria-label="Subtitle text 'Output, GWh, | IEA via ECO-API'" pointer-events="none"><text text-anchor="start" transform="translate(0,26)" font-family="sans-serif" font-size="12px" fill="#000000" opacity="1">Output, GWh, | IEA via ECO-API</text></g></g><path class="foreground" aria-hidden="true" d="" pointer-events="none" display="none"/></g></g></g><path class="foreground" aria-hidden="true" d="" display="none"/></g></g></g></svg>